<?xml version="1.0" standalone="no"?>
<!DOCTYPE svg PUBLIC "-//W3C//DTD SVG 20010904//EN"
 "http://www.w3.org/TR/2001/REC-SVG-20010904/DTD/svg10.dtd">
<svg version="1.0" xmlns="http://www.w3.org/2000/svg"
 width="1296.000000pt" height="1296.000000pt" viewBox="0 0 1296.000000 1296.000000"
 preserveAspectRatio="xMidYMid meet">
<metadata>
Created by potrace 1.14, written by Peter Selinger 2001-2017
</metadata>
<g transform="translate(0.000000,1296.000000) scale(0.100000,-0.100000)"
fill="#000000" stroke="none">
<path d="M6604 10633 c-81 -342 -177 -691 -255 -926 -65 -192 -97 -265 -251
-572 -217 -431 -274 -599 -299 -886 -38 -443 85 -907 354 -1344 55 -89 211
-279 310 -377 61 -60 86 -74 66 -37 -20 38 -77 245 -103 373 -43 212 -59 405
-53 636 10 373 61 615 204 970 199 491 253 723 256 1115 1 122 5 187 11 177
14 -25 13 -493 -2 -602 -28 -201 -74 -400 -127 -541 -36 -94 -125 -406 -144
-499 -37 -189 -46 -289 -45 -540 0 -262 7 -336 55 -569 41 -203 148 -551 169
-551 30 0 428 1083 578 1575 65 211 105 375 129 522 25 152 24 523 0 682 -34
214 -104 447 -201 664 -71 158 -275 427 -457 603 -85 81 -171 154 -182 154 -4
0 -10 -12 -13 -27z"/>
<path d="M9840 9115 c-253 -154 -472 -276 -675 -377 -199 -99 -324 -149 -530
-213 -364 -113 -473 -151 -618 -219 -157 -73 -326 -204 -479 -373 -283 -312
-472 -730 -534 -1183 -20 -147 -31 -430 -17 -430 6 0 33 44 60 98 149 296 384
598 638 823 75 67 240 185 344 248 121 74 195 109 426 202 419 171 610 290
881 551 152 147 129 101 -34 -66 -166 -170 -336 -305 -511 -406 -40 -23 -178
-95 -305 -159 -128 -64 -279 -147 -336 -186 -340 -225 -610 -520 -835 -910
-80 -139 -183 -360 -173 -370 9 -10 94 21 303 112 513 221 737 323 1000 455
475 238 651 353 855 558 249 249 390 465 521 798 97 246 124 422 124 804 0
172 -4 280 -10 286 -6 6 -42 -11 -95 -43z m-370 -749 c0 -2 -8 -10 -17 -17
-16 -13 -17 -12 -4 4 13 16 21 21 21 13z"/>
<path d="M3490 9104 c-154 -18 -204 -26 -226 -34 l-24 -10 78 -122 c70 -109
152 -244 202 -333 9 -16 31 -52 47 -80 132 -217 307 -582 351 -735 25 -87 159
-446 204 -549 115 -262 263 -454 494 -643 386 -315 928 -481 1442 -441 85 6
102 16 55 34 -42 15 -243 119 -298 153 -207 131 -309 211 -483 381 -268 261
-404 464 -592 885 -120 270 -181 386 -267 513 -42 61 -79 114 -82 117 -3 3
-22 25 -41 50 -49 64 -110 130 -225 244 -80 79 -90 92 -51 65 67 -47 269 -242
353 -341 143 -168 222 -291 365 -568 93 -179 124 -233 194 -340 277 -421 708
-772 1202 -975 58 -25 108 -42 110 -40 9 9 -31 111 -95 244 -36 75 -82 174
-103 221 -80 179 -305 641 -393 805 -127 238 -152 282 -194 353 -25 42 -54 93
-65 112 -38 66 -151 223 -223 309 -244 289 -552 501 -925 634 -198 70 -308 88
-575 92 -110 2 -216 1 -235 -1z"/>
<path d="M11072 7495 c-44 -19 -182 -136 -270 -229 -85 -89 -192 -231 -299
-395 -342 -525 -520 -758 -768 -1007 -165 -165 -183 -182 -300 -271 -236 -178
-408 -252 -660 -284 -102 -13 -236 -7 -341 16 -98 20 -102 22 -161 72 -61 52
-78 100 -47 134 46 51 201 99 494 153 321 60 423 86 556 144 282 122 474 333
543 597 71 270 35 392 -104 351 -57 -18 -120 -62 -207 -147 -194 -188 -377
-256 -928 -348 -351 -59 -443 -77 -670 -131 -173 -41 -237 -62 -334 -113 -501
-260 -866 -859 -1036 -1697 -53 -261 -42 -721 26 -1050 73 -357 200 -634 392
-857 47 -54 149 -140 157 -132 2 3 -13 32 -34 64 -188 300 -273 593 -242 837
17 131 37 202 82 288 196 377 547 544 1470 700 477 81 781 193 1119 415 202
132 405 317 563 511 157 195 366 558 466 811 146 370 233 557 416 898 21 39
41 75 45 80 5 6 23 37 41 70 18 33 53 92 77 130 25 39 54 90 64 115 11 25 27
61 35 80 9 19 18 64 21 101 4 58 2 69 -17 88 -25 25 -98 28 -149 6z"/>
<path d="M1765 7481 c-36 -15 -48 -40 -47 -92 2 -89 33 -160 170 -384 152
-250 377 -680 440 -840 222 -569 440 -930 746 -1239 393 -395 867 -625 1486
-720 491 -76 814 -154 1024 -249 365 -164 564 -432 583 -783 12 -233 -53 -468
-204 -729 -26 -44 -53 -88 -61 -98 -8 -9 -12 -20 -9 -23 10 -10 61 32 136 112
311 333 479 913 458 1584 -7 209 -20 297 -77 523 -116 453 -276 796 -509 1092
-181 229 -464 435 -676 490 -221 58 -526 116 -880 170 -300 45 -463 84 -607
144 -105 44 -187 96 -255 161 -96 92 -156 138 -206 159 -64 27 -100 26 -134
-3 -27 -24 -28 -26 -27 -128 3 -316 174 -583 484 -755 137 -76 296 -121 624
-178 552 -96 648 -162 451 -312 -63 -48 -167 -68 -360 -68 -296 0 -497 70
-762 266 -330 244 -634 588 -993 1124 -202 302 -274 399 -383 519 -80 89 -237
223 -282 241 -43 18 -107 26 -130 16z"/>
</g>
</svg>
