<svg xmlns="http://www.w3.org/2000/svg" width="189" height="90" viewBox="0 0 189 90">
    <g fill="none" fill-rule="evenodd">
        <path fill="#FFF" fill-opacity=".01" d="M0 0h189v90H0z"/>
        <g fill-rule="nonzero" transform="translate(68.113 1.125)">
            <circle cx="27" cy="27" r="27" fill="#00AA13"/>
            <path fill="#FFF" d="M41.434 20.617a3.582 3.582 0 0 0-1.514-2.645 59.137 59.137 0 0 0-2.62-1.775c-3.554 1.627-8.097 3.954-11.762 5.877a3.916 3.916 0 0 0-2.107 3.367 246.678 246.678 0 0 0-.075 5.537l-2.773-4.574-2.773 1.81c.016-1.751.07-3.502.161-5.253a3.938 3.938 0 0 1 2.099-3.28c3.856-2.029 8.599-4.53 12.279-6.33a61.04 61.04 0 0 0-3.773-1.817 3.61 3.61 0 0 0-2.802-.002 62.86 62.86 0 0 0-11.496 6.158 3.504 3.504 0 0 0-1.538 2.572 80.594 80.594 0 0 0-.245 12.062 3.522 3.522 0 0 0 1.28 2.517 55.608 55.608 0 0 0 11.385 7.56 3.671 3.671 0 0 0 3.193-.034 77.254 77.254 0 0 0 11.567-7.18 3.524 3.524 0 0 0 1.444-2.557c.323-3.997.346-8.013.07-12.013z"/>
        </g>
        <g fill="#000" fill-rule="nonzero">
            <path d="M44.355 82.125A5.804 5.804 0 0 0 49.4 84.59c2.352 0 4.082-1.502 4.082-3.543v-1.076h-.057a6.407 6.407 0 0 1-4.848 1.813 7.852 7.852 0 1 1-.14-15.7 6.75 6.75 0 0 1 4.988 1.757h.057v-1.474h4.023v14.624c0 4.25-3.372 7.198-8.105 7.198a9.69 9.69 0 0 1-8.05-3.57l3.005-2.494zm8.956-9.098c0-1.7-1.928-3.26-4.081-3.26-2.72 0-4.535 1.645-4.535 4.11a3.97 3.97 0 0 0 4.366 4.224c2.35 0 4.25-1.475 4.25-3.317v-1.757zM68.054 65.942c4.902 0 8.473 3.486 8.473 7.936 0 4.449-3.57 7.935-8.473 7.935a7.953 7.953 0 1 1 0-15.87zm0 3.684a4.251 4.251 0 1 0 4.278 4.252 4.07 4.07 0 0 0-4.278-4.252zM81.576 75.578c.595 1.927 2.126 2.89 4.535 2.89 2.182 0 3.43-.482 3.43-1.303 0-.878-.907-1.276-3.713-1.701-5.498-.85-7.453-2.182-7.453-4.875 0-2.777 2.777-4.647 6.914-4.647 3.77 0 7.199 1.927 7.992 4.534l-3.826 1.163a4.262 4.262 0 0 0-4.194-2.353c-1.73 0-2.863.51-2.863 1.303 0 .795.794 1.078 4.11 1.645 5.072.793 7.085 2.182 7.085 4.902 0 2.806-3.004 4.677-7.51 4.677a10.332 10.332 0 0 1-5.612-1.446 5.952 5.952 0 0 1-2.835-3.854l3.94-.935zM103.12 65.942a7.774 7.774 0 0 1 8.162 8.077v1.19H99.095c.143 1.956 1.758 3.203 4.251 3.203a5.98 5.98 0 0 0 4.62-2.24l2.607 2.609a9.188 9.188 0 0 1-7.198 3.032c-5.243 0-8.418-3.145-8.418-7.907a7.796 7.796 0 0 1 8.163-7.964zm4.08 6.32c-.197-1.786-1.756-2.92-3.995-2.92-2.267 0-3.827 1.134-4.053 2.92h8.049zM113.525 66.367h4.053v1.418h.057a7.41 7.41 0 0 1 5.073-1.843c4.25 0 7.199 2.806 7.199 6.886v8.56h-4.195v-8.021c0-2.295-1.502-3.684-3.91-3.684a3.718 3.718 0 0 0-4.082 3.684v8.02h-4.195v-15.02zM140.001 65.942a7.165 7.165 0 0 1 4.874 1.615h.057v-6.859h4.194v20.69h-3.882v-1.473h-.057a6.624 6.624 0 0 1-5.073 1.898 7.733 7.733 0 0 1-8.134-7.935 7.82 7.82 0 0 1 8.021-7.936zm4.93 6.943c0-1.785-1.983-3.26-4.278-3.26a4.17 4.17 0 0 0-4.478 4.253c0 2.578 1.756 4.223 4.478 4.223 2.38 0 4.279-1.475 4.279-3.317v-1.899z"/>
        </g>
    </g>
</svg>