<?xml version="1.0" encoding="UTF-8"?>
<!DOCTYPE svg PUBLIC "-//W3C//DTD SVG 1.1//EN" "http://www.w3.org/Graphics/SVG/1.1/DTD/svg11.dtd">
<!-- Creator: CorelDRAW X7 -->
<svg xmlns="http://www.w3.org/2000/svg" xml:space="preserve" width="14.0814in" height="3.06659in" version="1.1" style="shape-rendering:geometricPrecision; text-rendering:geometricPrecision; image-rendering:optimizeQuality; fill-rule:evenodd; clip-rule:evenodd"
viewBox="0 0 14081 3067"
 xmlns:xlink="http://www.w3.org/1999/xlink">
 <defs>
  <style type="text/css">
   <![CDATA[
    .fil0 {fill:#ED3237}
   ]]>
  </style>
 </defs>
 <g id="Layer_x0020_1">
  <metadata id="CorelCorpID_0Corel-Layer"/>
  <g id="_170937610688">
   <polygon class="fil0" points="5393,810 6598,810 6005,2935 6839,2935 7432,810 8405,810 8629,557 7841,557 7945,439 8735,439 8847,313 8038,313 8142,146 8995,146 9125,0 5764,0 "/>
   <polygon class="fil0" points="2281,2964 0,2964 350,2398 1662,2406 2259,22 3020,22 2411,2406 "/>
   <path class="fil0" d="M5826 2934l-740 0 -127 -141c-353,211 -775,318 -1195,256 -517,-102 -828,-416 -784,-929 69,-358 226,-657 458,-905 -259,-519 -164,-875 2,-1198l1789 0 -299 682c-232,-468 -966,-350 -937,276l876 969c75,-92 151,-302 226,-540l550 274c-83,252 -178,503 -308,713l2 2 487 541zm-1304 -628l-678 -705c-704,510 10,1342 678,705z"/>
   <path class="fil0" d="M8715 1823c0,4 0,10 -1,19 -1,8 -2,18 -4,29 -2,10 -4,21 -7,33 -3,12 -6,22 -11,32 -4,9 -9,17 -15,24 -6,6 -13,9 -20,9l-399 0 -55 273 339 0c8,0 14,3 17,8 4,6 6,14 6,24 0,5 -1,11 -1,19 -1,8 -3,18 -5,29 -1,10 -3,21 -6,32 -3,11 -7,21 -11,30 -4,9 -10,17 -15,23 -6,5 -12,8 -19,8l-339 0 -63 315 404 0c7,0 13,3 16,10 3,5 5,14 5,26 0,4 0,10 -1,19 0,9 -2,19 -4,29 -2,11 -4,22 -7,33 -3,11 -6,21 -11,31 -4,9 -9,17 -15,23 -6,5 -12,8 -19,8l-563 0c-9,0 -17,-1 -25,-4 -8,-2 -14,-7 -18,-13 -5,-6 -9,-13 -10,-22 -2,-9 -2,-20 0,-33l195 -975c5,-25 16,-44 32,-55 15,-11 33,-17 52,-17l556 0c15,0 22,11 22,33zm639 509l172 489c6,21 10,37 11,50 1,12 -3,22 -11,28 -8,7 -21,11 -39,13 -19,2 -44,2 -77,2 -24,0 -42,0 -56,-1 -14,-1 -24,-3 -32,-6 -8,-3 -13,-6 -16,-11 -4,-4 -6,-10 -9,-17l-136 -407 -287 407c-5,7 -10,13 -16,17 -5,5 -13,8 -23,11 -10,3 -24,5 -40,6 -17,1 -38,1 -64,1 -30,0 -54,0 -71,-2 -17,-2 -29,-6 -34,-12 -5,-6 -5,-16 1,-28 5,-12 15,-28 30,-48l368 -493 -156 -455c-6,-20 -10,-36 -11,-49 -1,-12 3,-21 11,-27 7,-7 20,-11 39,-12 18,-2 44,-3 76,-3 24,0 44,1 58,2 14,1 25,3 33,6 8,3 14,7 17,12 4,5 7,12 9,20l119 365 262 -370c4,-6 9,-12 15,-17 5,-4 12,-8 21,-11 10,-2 22,-4 37,-5 15,-1 35,-2 60,-2 32,0 57,1 75,3 18,1 29,5 35,12 5,6 5,15 0,27 -5,13 -15,29 -29,49l-342 456zm1257 -267c0,32 -4,66 -11,101 -7,35 -19,70 -35,103 -16,34 -37,66 -63,96 -26,30 -57,57 -94,81 -37,23 -81,42 -130,55 -49,14 -106,20 -172,20l-117 0 -72 358c-1,6 -4,11 -8,16 -5,4 -12,8 -22,11 -10,3 -22,5 -37,6 -15,2 -34,2 -55,2 -22,0 -39,0 -54,-2 -14,-1 -25,-3 -33,-6 -8,-3 -13,-7 -16,-11 -3,-4 -4,-10 -2,-16l202 -1007c5,-27 16,-48 34,-61 17,-14 38,-21 63,-21l245 0c30,0 57,1 80,3 24,2 47,6 70,10 35,7 67,18 95,32 28,15 51,33 71,54 20,22 35,47 45,77 10,29 16,62 16,99zm-239 25c0,-27 -7,-51 -20,-72 -13,-20 -34,-34 -61,-42 -13,-4 -26,-7 -41,-8 -15,-2 -32,-2 -50,-2l-100 0 -76 380 104 0c33,0 61,-4 84,-12 24,-7 44,-18 62,-30 18,-13 33,-28 45,-45 13,-18 23,-36 31,-55 7,-19 13,-38 16,-58 4,-19 6,-38 6,-56zm1195 -56c0,38 -5,74 -15,110 -10,37 -26,71 -48,103 -22,33 -51,62 -85,88 -35,26 -78,47 -128,62 28,11 51,33 70,65 19,33 35,77 47,134l43 227c3,13 5,24 7,34 2,10 3,19 3,26 0,5 -2,10 -6,14 -4,4 -10,7 -21,10 -10,3 -23,5 -40,6 -17,1 -39,1 -65,1 -24,0 -44,0 -58,-2 -14,-1 -26,-3 -34,-7 -8,-3 -13,-7 -15,-12 -3,-5 -5,-11 -6,-18l-43 -248c-4,-29 -11,-54 -19,-76 -7,-22 -18,-40 -30,-55 -12,-15 -27,-26 -44,-33 -18,-7 -39,-11 -64,-11l-72 0 -85 427c0,6 -3,11 -8,16 -5,4 -12,8 -21,11 -10,3 -22,5 -37,6 -15,2 -34,2 -56,2 -22,0 -39,0 -53,-2 -15,-1 -26,-3 -34,-6 -8,-3 -13,-7 -16,-11 -3,-4 -4,-10 -2,-16l204 -1017c5,-25 15,-44 30,-55 16,-11 35,-17 56,-17l300 0c53,0 100,5 143,15 42,10 78,25 108,45 31,20 54,46 70,76 16,31 24,67 24,108zm-244 43c0,-16 -3,-31 -9,-45 -5,-14 -14,-26 -26,-37 -12,-10 -28,-17 -47,-23 -20,-6 -43,-8 -70,-8l-129 0 -64 318 109 0c43,0 80,-6 110,-18 30,-13 54,-29 73,-49 18,-19 32,-41 40,-65 9,-24 13,-48 13,-73zm1170 -254c0,4 0,10 -1,19 -1,8 -3,18 -4,29 -2,10 -4,21 -7,33 -3,12 -7,22 -11,32 -4,9 -10,17 -16,24 -6,6 -12,9 -19,9l-399 0 -55 273 339 0c8,0 14,3 17,8 4,6 5,14 5,24 0,5 0,11 -1,19 -1,8 -2,18 -4,29 -1,10 -4,21 -7,32 -3,11 -6,21 -11,30 -4,9 -9,17 -15,23 -6,5 -12,8 -19,8l-339 0 -63 315 405 0c7,0 12,3 15,10 4,5 6,14 6,26 0,4 -1,10 -1,19 -1,9 -2,19 -4,29 -2,11 -4,22 -7,33 -3,11 -7,21 -11,31 -4,9 -9,17 -15,23 -6,5 -12,8 -20,8l-562 0c-9,0 -18,-1 -25,-4 -8,-2 -14,-7 -19,-13 -5,-6 -8,-13 -10,-22 -2,-9 -1,-20 1,-33l195 -975c5,-25 15,-44 31,-55 16,-11 34,-17 53,-17l555 0c15,0 23,11 23,33zm765 53c0,5 -1,12 -2,21 -1,8 -2,18 -4,28 -1,10 -4,21 -6,32 -3,10 -6,20 -10,29 -4,9 -8,16 -13,22 -5,6 -10,9 -15,9 -8,0 -18,-4 -30,-11 -12,-7 -27,-15 -45,-24 -18,-8 -38,-16 -62,-23 -23,-8 -50,-11 -80,-11 -31,0 -57,4 -79,13 -21,8 -39,20 -53,34 -14,14 -24,30 -30,48 -7,17 -10,35 -10,53 0,20 5,39 15,55 11,16 24,30 42,44 17,13 37,26 59,39 22,13 45,26 68,40 22,13 45,29 67,45 22,17 42,35 60,57 17,22 31,46 41,74 10,28 16,61 16,97 0,54 -11,104 -33,151 -22,46 -53,86 -93,121 -41,34 -89,61 -146,80 -57,20 -120,30 -189,30 -38,0 -72,-3 -104,-10 -31,-5 -60,-13 -84,-22 -24,-8 -45,-17 -61,-27 -17,-10 -30,-19 -38,-27 -8,-9 -12,-22 -12,-39 0,-5 1,-12 2,-21 1,-10 3,-20 5,-30 2,-11 4,-22 7,-33 3,-11 6,-22 10,-31 4,-9 9,-17 14,-23 5,-5 10,-8 15,-8 10,0 22,4 35,13 14,9 31,19 51,30 20,10 44,21 72,30 27,9 60,14 99,14 34,0 64,-5 90,-13 26,-9 47,-21 64,-36 18,-15 31,-32 40,-52 9,-19 13,-41 13,-64 0,-22 -5,-41 -15,-56 -11,-17 -24,-31 -41,-45 -17,-14 -37,-27 -58,-39 -22,-12 -44,-24 -66,-38 -23,-14 -45,-29 -66,-45 -22,-16 -41,-35 -58,-57 -17,-22 -31,-46 -41,-75 -11,-28 -16,-61 -16,-98 0,-52 10,-100 31,-144 21,-43 50,-81 86,-112 37,-32 81,-56 132,-74 51,-17 108,-26 169,-26 29,0 57,2 83,6 26,5 50,10 71,17 21,6 40,14 55,22 15,8 25,15 31,20 6,6 10,12 13,17 2,7 4,14 4,23zm823 0c0,5 0,12 -1,21 -1,8 -2,18 -4,28 -2,10 -4,21 -7,32 -2,10 -6,20 -9,29 -4,9 -9,16 -13,22 -5,6 -10,9 -15,9 -8,0 -18,-4 -31,-11 -12,-7 -27,-15 -44,-24 -18,-8 -38,-16 -62,-23 -24,-8 -50,-11 -80,-11 -31,0 -58,4 -79,13 -22,8 -39,20 -53,34 -14,14 -24,30 -31,48 -6,17 -10,35 -10,53 0,20 6,39 16,55 10,16 24,30 42,44 17,13 37,26 59,39 22,13 45,26 67,40 23,13 46,29 68,45 22,17 42,35 59,57 18,22 32,46 42,74 10,28 16,61 16,97 0,54 -11,104 -33,151 -22,46 -53,86 -93,121 -41,34 -89,61 -146,80 -57,20 -120,30 -190,30 -37,0 -71,-3 -103,-10 -32,-5 -60,-13 -84,-22 -24,-8 -45,-17 -62,-27 -16,-10 -29,-19 -37,-27 -8,-9 -12,-22 -12,-39 0,-5 1,-12 2,-21 1,-10 3,-20 5,-30 2,-11 4,-22 7,-33 3,-11 6,-22 10,-31 4,-9 9,-17 13,-23 5,-5 10,-8 16,-8 10,0 21,4 35,13 14,9 30,19 51,30 20,10 44,21 72,30 27,9 60,14 99,14 34,0 64,-5 90,-13 25,-9 47,-21 64,-36 18,-15 31,-32 39,-52 10,-19 14,-41 14,-64 0,-22 -5,-41 -16,-56 -10,-17 -23,-31 -41,-45 -16,-14 -36,-27 -57,-39 -22,-12 -44,-24 -67,-38 -22,-14 -44,-29 -66,-45 -21,-16 -41,-35 -57,-57 -18,-22 -31,-46 -41,-75 -11,-28 -16,-61 -16,-98 0,-52 10,-100 31,-144 21,-43 49,-81 86,-112 37,-32 81,-56 132,-74 51,-17 108,-26 169,-26 29,0 57,2 83,6 26,5 49,10 71,17 21,6 40,14 55,22 15,8 25,15 31,20 6,6 10,12 13,17 2,7 3,14 3,23z"/>
  </g>
 </g>
</svg>
